<svg xmlns="http://www.w3.org/2000/svg" version="1.1" xmlns:xlink="http://www.w3.org/1999/xlink" width="512" height="512" x="0" y="0" viewBox="0 0 512 512" style="enable-background:new 0 0 512 512" xml:space="preserve" class=""><g><path d="M512 256c0 141.867-114.133 256-256 256S0 397.867 0 256 114.133 0 256 0s256 114.133 256 256z" style="" fill="#55c0eb" data-original="#55c0eb" class=""></path><path d="M19.2 347.733v-1.067c1.067.001 1.067 1.067 0 1.067 2.133 1.067 2.133 0 3.2-1.067 0 0-1.067 0-1.067-1.067 0-2.133 1.067-3.2 3.2-4.267 0 1.067 0 2.133 1.067 2.133 1.067 1.067 2.133 2.133 3.2 2.133l3.2-3.2c2.133 1.067 4.267 3.2 6.4 4.267 1.067 1.067 5.333 1.067 6.4 0 0 0 0-1.067 1.067-1.067 0 0 0-1.067 1.067-1.067C48 343.467 48 343.467 48 342.4v-2.133c1.067 1.067 2.133 3.2 2.133 4.267 1.067 3.2 2.133 3.2 5.333 3.2s5.333-1.067 8.533 0h2.133c2.133 0 3.2-1.067 4.267-1.067 3.2 0 4.267-1.067 6.4-3.2 1.067-1.067 2.133-1.067 3.2-1.067h4.267c2.133 1.067 5.333 1.067 7.467 3.2 1.067 1.067 2.133 1.067 3.2 2.133 2.133 0 3.2-1.067 5.333-1.067 3.2 0 5.333-2.133 7.467-3.2s3.2-2.133 4.267-3.2c1.067-1.067 2.133-2.133 4.267-1.067H121.601c4.267 0 7.467-1.067 9.6-4.267 1.067-1.067 1.067-2.133 0-3.2-1.067-1.067-1.067-2.133-1.067-4.267v-2.133c0-2.133-1.067-3.2-2.133-4.267-1.067-1.067-2.133-2.133-2.133-4.267-1.067-1.067-1.067-2.133-2.133-3.2 1.067-1.067 0-2.133 0-4.267 0-1.067-1.067-2.133-1.067-3.2-1.067-2.133-3.2 0-5.333-1.067v-1.067h3.2c0-1.067-1.067-1.067-1.067-2.133l-2.133-2.133h1.067c1.067 0 3.2 1.067 3.2-2.133v-1.067c1.067-1.067 2.133-3.2 1.067-4.267 0-3.2-1.067-6.4-3.2-8.533-1.067-1.067-3.2-2.133-2.133-4.267V277.333c1.067-2.133 0-4.267-1.067-5.333 1.067-1.067 1.067-2.133 0-4.267-1.067-1.067-1.067-2.133 1.067-2.133-1.067-1.067-3.2-2.133-4.267-3.2l-2.133-2.133c-1.067-1.067-1.067-2.133-1.067-2.133-1.067-1.067-2.133-1.067-1.067-3.2v-1.067c0-1.067-1.067-2.133-1.067-3.2l-1.067 1.067c-2.133-1.067-3.2-1.067-4.267 1.067 0 0-1.067 0-1.067 1.067v-1.067c0-1.067 1.067-1.067 1.067-2.133 1.067-1.067 2.133-1.067 2.133-2.133h2.133c0-1.067 0-2.133-1.067-2.133s-2.133-1.067-3.2-1.067c-1.067 0-2.133-1.067-3.2-2.133h-6.399v-2.133c0-2.133-1.067-2.133-2.133-3.2-3.2 0-5.333 0-5.333-2.133 0-1.067 0-3.2 1.067-5.333 0-1.067 1.067-2.133 1.067-2.133 1.067-1.067 2.133-2.133 4.267-2.133 2.133-1.067 2.133-2.133 1.067-4.267-1.067-2.133-3.2-3.2-4.267-5.333L86.4 214.4l6.4-3.2c1.067-1.067 3.2-1.067 4.267-2.133L98.133 208c-1.067-1.067-1.067-2.133-2.133-2.133-2.133-2.133-4.267-2.133-6.4 0h-3.2c-1.067-1.067-1.067-2.133-2.133-3.2-2.133-1.067-2.133-3.2-2.133-5.333 1.067-3.2 2.133-6.4 4.267-8.533 1.067 0 1.067-1.067 2.133-2.133s1.067-1.067 3.2-1.067H92.8s0-1.067 1.067-1.067L96 182.4c1.067 1.067 2.133 0 3.2 0 1.067 2.133 2.133 2.133 3.2 1.067 1.067 0 1.067 1.067 1.067 1.067 1.067 1.067 3.2 2.133 3.2 4.267 0 2.133 2.133 3.2 3.2 4.267 0-1.067 1.067-1.067 1.067-2.133l-1.067-1.067s1.067 0 1.067 1.067c1.067 1.067 3.2 2.133 4.267 4.267 1.067 1.067 1.067 2.133 1.067 3.2 0 1.067 1.067 1.067 1.067 2.133 2.133 1.067 2.133 3.2 1.067 5.333-1.067 1.067-2.133 2.133-2.133 3.2-1.067 2.133-1.067 3.2-1.067 5.333 1.067 1.067 2.133 1.067 3.2 0l2.133-2.133 3.2-6.4c1.067-1.067 4.267-2.133 5.333-2.133 1.067 0 2.133 0 4.267 1.067h1.067c2.133 1.067 3.2 1.067 5.333 2.133l1.067-1.067c1.067 0 1.067 0 2.133 1.067 0 0 0-1.067-1.067-1.067 1.067 0 1.067 1.067 2.133 1.067 1.067-2.133 2.133-3.2 3.2-5.333 1.067-1.067 2.133-1.067 2.133-2.133 0 1.067-1.067 2.133-2.133 2.133l-2.133 2.133c2.133-1.067 4.267-1.067 5.333-3.2v1.067c2.133 0 3.2 0 4.267-2.133 1.067 1.067 2.133 1.067 3.2 2.133-1.067 0-1.067-1.067-2.133-1.067 2.133 1.067 4.267 2.133 5.333 4.267 0-1.067 1.067-2.133 1.067-2.133 1.067-1.067 3.2-2.133 5.333-1.067h2.133c1.067 1.067 2.133 2.133 4.267 1.067h1.067c1.067 1.067 3.2 2.133 4.267 2.133 0 0-1.067 0-1.067 1.067 0 0-1.067 0-2.133-1.067-2.133 0-3.2 1.067-2.133 3.2 4.267-1.067 6.4 2.133 9.6 3.2v-1.067c0-1.067 0-2.133-2.133-2.133-1.067 0-1.067-4.267-1.067-5.333 1.067-1.067 1.067-3.2 2.133-3.2-1.067-1.067-1.067-2.133-1.067-3.2l1.067 1.067c1.067 0 2.133 1.067 3.2 0 1.067-1.067 1.067-2.133 0-3.2-1.067-1.067-2.133-2.133-4.267-3.2-2.133-1.067-4.267-1.067-7.467-2.133H187.735c2.133 2.133 4.267 4.267 6.4 7.467 1.067 1.067 3.2 3.2 4.267 3.2 2.133 0 4.267 0 5.333 2.133 1.067 1.067 3.2 1.067 4.267 0l1.067-1.067c1.067 0 1.067-1.067 1.067-2.133 0-1.067-1.067-1.067-1.067-2.133l1.067-1.067c-1.067-1.067-2.133-1.067-3.2-1.067 0-1.067 0-1.067 1.067-1.067s1.067 1.067 2.133 1.067c-1.067-2.133-1.067-4.267-2.133-6.4 1.067-1.067 1.067-1.067 0-2.133v-4.267h2.133c1.067-1.067 1.067-2.133 1.067-3.2 0-1.067 1.067-1.067 1.067-2.133h-1.07 1.067s0-1.067-1.067-1.067l1.067-1.067c0-1.067 1.067-1.067 1.067-2.133s1.067-2.133 1.067-4.267V166.4c-1.067 0-2.133 0-3.2 1.067-1.067 1.067-2.133 1.067-3.2 1.067h-4.267c0-1.067 0-2.133 1.067-4.267l-2.133-2.133h2.133c1.067-1.067 3.2-2.133 2.133-4.267l1.067 1.067 3.2-3.2-1.067-1.067c0-1.067 0-1.067-1.067-2.133-1.067-1.067-1.067-1.067 0-2.133 0-1.067 1.067-2.133 1.067-3.2 1.067-1.067 1.067-4.267-1.067-4.267-1.067 0-2.133-1.067-2.133-2.133 0-1.067-1.067-2.133-1.067-2.133L204.8 137.6c-2.133 0-3.2 1.067-2.133 3.2-3.2 0-4.267 3.2-5.333 4.267-1.067 1.067-2.133 2.133-4.267 1.067-1.067-1.067-2.133 0-2.133 1.067 0 2.133-1.067 4.267-2.133 6.4-1.067 1.067-2.133 2.133-2.133 3.2l1.067 1.067H185.6c-2.133 1.067-3.2 0-5.333 0h-2.133c-2.133 2.133-3.2 4.267-5.333 7.467h-1.067s-1.067 1.067-1.067 2.133c-1.067-1.067-1.067-2.133-2.133-1.067 0-1.067-1.067-1.067-1.067-2.133 3.2-2.133 3.2-3.2 3.2-4.267l1.067-1.067c0-1.067 0-2.133 1.067-2.133l5.333-5.333c-1.067-1.067-1.067-2.133-2.133-3.2l-2.133-2.133c0-2.133-1.067-3.2-1.067-4.267V140.8c0-4.267 0-7.467-4.267-9.6 1.067-1.067 2.133-3.2 3.2-4.267 1.067-1.067 1.067-2.133 0-3.2 0 0-1.067-2.133 0-2.133 2.133-2.133 4.267-3.2 6.4-4.267 1.067-1.067 2.133-1.067 3.2-2.133 2.133 1.067 5.333 0 7.467-1.067 1.067 1.067 2.133 1.067 3.2 1.067 1.067 0 1.067-1.067 2.133-2.133 0 1.067 1.067 1.067 2.133 0 1.067 0 1.067-1.067 2.133 0 0 1.067 2.133 1.067 2.133 1.067 2.133 0 3.2-1.067 5.333-1.067-1.067-2.133-3.2-4.267-2.133-7.467 0 1.067 1.067 3.2 1.067 4.267 0 0 0 1.067 1.067 1.067 1.067 1.067 5.333 0 5.333 0V108.8h1.067l1.067 1.067C211.2 112 214.4 112 214.4 113.067c0-1.067 1.067-1.067 1.067-2.133v3.2h6.4c1.067 0 1.067-1.067 2.133-2.133 1.067-1.067 1.067-3.2 2.133-4.267 2.133 1.067 3.2 2.133 3.2-1.067h1.067c-1.067-1.067-1.067-3.2 0-4.267v-1.067c-1.067-1.067-2.133-3.2-3.2-4.267-1.067 1.067-3.2 2.133-2.133 4.267-1.067 0-1.067 1.067-2.133 1.067-1.067 0-1.067-1.067-2.133-1.067-2.133 1.067-3.2 1.067-5.333 2.133-1.067 1.067-2.133 1.067-3.2 0 0-1.067 1.067-2.133 1.067-3.2s1.067-2.133 3.2-1.067c1.067-1.067 1.067-3.2 2.133-4.267 0-1.067 0-1.067-1.067-1.067s-1.067 1.067-2.133 1.067c-2.133 0-2.133 1.067-3.2 1.067 1.067-2.133 2.133-3.2 2.133-4.267s0-1.067 1.067-1.067V89.6c0-1.067-1.067-2.133-1.067-2.133 1.067 0 2.133-1.067 3.2-1.067h1.067c0-1.067 0-3.2 1.067-4.267 0-1.067 1.067-2.133 2.133-3.2v-1.067c0-1.067 1.067-2.133 1.067-2.133 0-1.067 0-1.067 1.067-2.133-1.067 1.067-2.133 1.067-4.267 2.133-1.067-1.067-3.2 0-4.267 3.2H214.4c-1.067 0-2.133 1.067-2.133 3.2s-1.067 4.267 1.067 5.333c-1.067 0-2.133 1.067-4.267 2.133 1.067 0 1.067 1.067 2.133 1.067-1.067 2.133-4.267 2.133-6.4 0l-3.2 3.2c-1.067-3.2 2.133-3.2 3.2-4.267h-1.067c1.067-2.133 0-3.2-2.133-4.267 0 1.067-1.067 2.133-1.067 3.2L201.6 89.6s-1.067 0-2.133 1.067V86.4l-1.067 1.067-4.267-4.267c-2.133-4.267-3.2-4.267-2.133-6.4 0-1.067 0-2.133-1.067-3.2-1.067 0-1.067-3.2 0-4.267 2.133-3.2 1.067-3.2-1.067-4.267 0 0-1.067 0-1.067-1.067h-3.2c0 3.2 0 3.2 2.133 2.133 0 1.067 1.067 1.067 1.067 1.067h2.133c-1.067 1.067-2.133 1.067-4.267 0-1.067-1.067-3.2 0-3.2 1.067S182.4 70.4 182.4 70.4h-2.133v-1.067c1.067 0 2.133 0 1.067-1.067v-3.2c0-1.067 0-2.133-1.067-3.2C176 60.8 173.867 57.6 172.8 54.4c2.133-1.067 2.133 0 4.267 1.067 0-2.133 1.067-3.2 1.067-4.267l-1.067-1.067c-1.067 0-1.067-1.067-1.067-1.067-1.067-3.2-3.2-6.4-3.2-10.667 0-1.067-1.067-2.133-2.133-3.2h-2.133c-1.066 0-1.067 0-2.133-1.067 1.067-1.067 2.133-2.133 3.2-4.267-2.133 0-3.2 1.067-4.267 1.067h-1.067s-1.067-1.067 0-1.067c0-1.067 1.067-3.2 2.133-4.267 0-1.067 1.067-2.133 1.067-3.2H166.4c0 1.067 0 1.067-1.067 2.133-1.067 0-2.133 1.067-3.2-1.067 0 0-1.067-1.067-2.133-1.067 3.2 0 3.2 0 3.2-1.067-3.2-1.067-6.4-1.067-8.533-2.133-17.067 7.467-32 16-46.933 26.667v5.333s1.067 0 1.067 1.067c0 0 0-1.067 1.067-1.067v-2.133h1.067v4.267c1.067-1.067 1.067-2.133 2.133-3.2 0 1.067 0 1.067-1.067 2.133 0 1.067-1.067 1.067-1.067 2.133 0 2.133 0 3.2-1.067 4.267 0 0 0 1.067-1.067 1.067 0 1.067-1.067 2.133-1.067 3.2V64c-1.067 0-1.067 0-2.133 1.067l1.067 1.067v2.133s0 1.067 1.067 1.067h-2.133c1.067 0 1.067 1.067 2.133 1.067-2.133 3.2-3.2 4.267-3.2 4.267s0 1.067-1.067 1.067c0 2.133 0 4.267-1.067 6.4v1.067c0 1.067-1.067 4.267-1.067 4.267-2.133 1.067-1.067 1.067 0 2.133v2.133c-2.133-2.133-2.133-3.2-3.2-5.333v1.067c-1.067 0-1.067 1.067-1.067 1.067 0 1.067 1.067 2.133 0 4.267v5.333c-1.067 0-4.267 5.333-4.267 6.4-1.067 0-1.067 0-2.133 1.067-2.133 1.067-3.2 2.133-5.333 4.267l-3.2 3.2-3.2 3.2-1.067 1.067c-1.067 1.067-1.067 2.133-1.067 2.133-1.067 2.133-1.067 3.2 0 4.267l-1.067 1.067c0 1.067-1.067 3.2-1.067 4.267v2.133c-1.067 1.067 0 2.133 0 3.2 0 2.133 1.067 4.267 0 5.333 0 2.133-2.133 4.267-2.133 6.4-1.067 1.067-1.067 3.2-1.067 4.267v2.133c0 1.067-1.067 1.067-1.067 1.067l-1.067-1.067v4.267c1.067 2.133 0 3.2-1.067 4.267l-1.067 1.067v6.4c1.067 0 2.133-1.067 2.133-2.133v-2.133c2.133-3.2 2.133-6.4 3.2-9.6V153.6c0-3.2 1.067-5.333 3.2-7.467 0 2.133 2.133 3.2 0 5.333-1.067 1.067-1.067 3.2-2.133 4.267V163.2c0 1.067 0 2.133-1.067 2.133v3.2c0 2.133-1.067 4.267-1.067 6.4s-1.067 4.267-3.2 5.333c-1.067 1.067-2.133 1.067-1.067 2.133 0 2.133 0 5.333 2.133 7.467v1.067c0 1.067 1.067 3.2 1.067 4.267 0 1.067 1.067 3.2 1.067 4.267 2.133 1.067 3.2 3.2 4.267 3.2 2.133 1.067 3.2 2.133 3.2 5.333 0 5.333 2.133 8.533 4.267 11.733 0 1.067 0 1.067-1.067 2.133 0 2.133 0 3.2-1.067 4.267v2.133c1.067 1.067 1.067 2.133 1.067 3.2 0 1.067 0 2.133 1.067 3.2 0 1.067 1.067 1.067 1.067 2.133v2.133h1.067c0-2.133 0-2.133 4.267-1.067v2.133c-1.067 1.067-2.133 3.2-2.133 4.267-1.067 1.067-3.2 2.133-3.2 4.267-1.067 0-2.133 0-3.2-1.067-2.133 1.067-5.333 0-8.533 1.067-1.067 1.067-2.133 1.067-2.133 2.133l1.067 1.067c-1.067 1.067-1.067 1.067-3.2 0-1.067 0-3.2 2.133-3.2 3.2 0 3.2-1.067 6.4-2.133 9.6-1.067 2.133-1.067 3.2-2.133 5.333 0 1.067-1.067 2.133-2.133 3.2v1.067c0 3.2 0 5.333 1.067 8.533 1.067 3.2 2.133 6.4-1.067 8.533-3.2 3.2-7.467 6.4-10.667 8.533-1.067 1.067-2.133 2.133-4.267 2.133-4.267 2.133-7.467 4.267-10.667 7.467 0 0 0 1.067-1.067 1.067-3.2 1.067-6.4 3.2-9.6 4.267-2.133 1.067-5.333 2.133-6.4 4.267L14.933 320c-1.067 0-1.067 1.067-2.133 1.067 2.133 6.4 4.267 13.867 6.4 20.267-1.067 6.399-1.067 6.399 0 6.399zM506.667 205.867c-3.2 2.133-3.2 2.133-6.4 1.067 0 0-1.067 0-1.067-1.067-2.133-1.067-2.133-1.067-3.2 1.067-3.2 0-3.2-2.133-4.267-4.267 0 2.133-1.067 3.2-1.067 4.267s-1.067 3.2-1.067 4.267l-1.067-1.067c-1.067 0-2.133-1.067-2.133-3.2 0-1.067-1.067-1.067-1.067-2.133-1.067-1.067 0-2.133 0-2.133 1.067-1.067 1.067-2.133 1.067-3.2V198.4c1.067-2.133 0-3.2-2.133-5.333C483.2 192 481.067 190.933 480 192c-1.067-1.067-3.2-2.133-4.267-2.133-1.067-1.067-2.133 0-2.133 1.067v2.133c0 1.067 0 2.133-1.067 2.133-3.2 1.067-5.333 0-7.467-1.067-1.067-1.067-2.133-1.067-1.067-3.2-5.333-2.133-8.533-2.133-11.733 0 1.067 0 1.067 1.067 2.133 1.067-1.067 0-1.067 1.067-2.133 1.067v-3.2c0-1.067-1.067-2.133-1.067-2.133 0 1.067-1.067 2.133-1.067 2.133-1.067 0-2.133 0-3.2-2.133-1.067 0-2.133 0-2.133-1.067-1.067 1.067-1.067 1.067-1.067 3.2 2.133-1.067 2.133-1.067 2.133 0-1.067 0-2.133 1.067-3.2 1.067 0 1.067-3.2 2.133-6.4 2.133l3.2-3.2c1.067 0 2.133 0 2.133-1.067s1.067-2.133 2.133-2.133c1.067-2.133 2.133-4.267 4.267-4.267h1.067c1.067-1.067 2.133-2.133 2.133-3.2 1.067-1.067 1.067-2.133 1.067-3.2 0-1.067-1.067-2.133 0-4.267v-1.067c0-1.067-1.067-2.133-1.067-2.133l-1.067 1.067c0-1.067 0-2.133-1.067-2.133-2.133-2.133-3.2-4.267-6.4-3.2H441.6c-1.067 0-2.133 0-2.133 1.067-1.067 1.067-2.133 2.133-3.2 1.067l2.133-2.133c1.067-2.133 1.067-2.133-1.067-3.2-1.067 0-1.067 0-2.133-1.067h-1.067c0-1.067 1.067-1.067 1.067-2.133 1.067-1.067 1.067-2.133 0-3.2-1.067 0-1.067-1.067-2.133-1.067-1.067-1.067-3.2 0-3.2 1.067-1.067 1.067-2.133 3.2-3.2 4.267 0 1.067-1.067 2.133-1.067 3.2v2.133c-2.133 0-3.2 0-5.333 1.067 1.067 1.067 2.133 2.133 1.067 4.267l-2.133-2.133c-3.2 1.067-3.2 2.133-4.267 3.2-1.067 0-1.067 1.067-2.133 1.067 0 0-1.067 0-1.067-1.067 1.067-1.067 0-1.067-1.067-1.067h-6.4l1.067 1.067c-1.067 0-1.067 0-1.067 1.067-2.133 1.067-4.267 1.067-5.333 2.133-1.067 0-3.2 1.067-3.2 2.133-1.067 1.067-2.133 2.133-3.2 1.067l1.067 1.067c0 1.067-1.067 2.133-1.067 3.2-1.067 0-1.067-1.067-2.133-1.067-1.067 2.133 1.067 1.067 1.067 2.133l-1.067 1.067c0 1.067 1.067 1.067 1.067 2.133 0 1.067-1.067 2.133-2.133 2.133-3.2 0-6.4 1.067-9.6 2.133-2.133 0-3.2 3.2-2.133 4.267 0 1.067 1.067 1.067 1.067 2.133 0 1.067 0 2.133 2.133 3.2 1.067 1.067 3.2 2.133 4.267 3.2v1.067c-1.067 2.133 0 4.267 0 6.4 0 1.067 0 2.133-1.067 2.133v1.067c-1.067 0-2.133-1.067-1.067-2.133 0-2.133-1.067-4.267 1.067-6.4 0 0 0-1.067 1.067-2.133H384c-2.133 0-3.2 0-4.267-2.133-1.067-2.133-3.2-2.133-6.4-2.133-1.067 0-1.067 0-1.067 1.067l1.067 1.067c-2.133 2.133-2.133 2.133-3.2 0-1.067 1.067 0 2.133 0 2.133 1.067 1.067 2.133 2.133 3.2 2.133 0 1.067 0 1.067 1.067 2.133-2.133-1.067-4.267-2.133-6.4-2.133v-6.4c1.067-2.133 0-4.267-1.067-5.333v1.067c1.067 2.133 0 4.267-2.133 5.333-1.067 1.067-1.067 2.133-1.067 4.267 1.067 1.067 1.067 2.133 1.067 3.2 0 1.067 1.067 1.067 0 2.133-1.067 3.2-1.067 5.333 0 9.6h6.4c2.133 1.067 2.133 3.2 3.2 4.267 0 1.067-1.067 2.133-1.067 2.133l2.133 2.133c-2.133 0-2.133 0-2.133-1.067 1.067-2.133 0-4.267-2.133-6.4-1.067 0-1.067 0-2.133 1.067-3.2 1.067-3.2 1.067-2.133 4.267v3.2c0 1.067-1.067 2.133-1.067 3.2 0 0 0 1.067-1.067 1.067l-3.2 3.2h-2.133c-1.067 0-2.133-1.067-1.067-2.133 1.067 1.067 2.133 2.133 3.2 1.067v-3.2c2.133 0 1.067-2.133 2.133-3.2 1.067-2.133 1.067-4.267 1.067-5.333v-1.067c-3.2-3.2 0-6.4-1.067-9.6 0-2.133 1.067-4.267-1.067-6.4-1.067-1.067-1.067-2.133 0-3.2 1.067-2.133 1.067-4.267 1.067-5.333 0 0 0-1.067-1.067-1.067-2.133 0-4.267-1.067-6.4-1.067 0 1.067-1.067 2.133-1.067 3.2 0 3.2-1.067 6.4-4.267 7.467l-1.067 1.067v2.133s1.067 0 1.067 1.067c0 2.133-1.067 4.267-1.067 7.467 2.133 0 3.2 1.067 3.2 2.133 0 1.067 1.067 1.067 1.067 2.133 0 1.067-1.067 2.133-1.067 3.2-1.067-1.067-2.133-3.2-3.2-3.2-3.2-2.133-6.4-5.333-10.667-5.333-1.067 0-2.133 0-3.2 1.067v2.133c0 1.066 1.067 2.133 0 3.2-1.067 0-2.133 1.067-1.067 2.133 0 0-1.067 0-1.067 1.067v-1.067c0-1.067 0-2.133-1.067-3.2-1.067 1.067-2.133 2.133-3.2 2.133-1.067 0-1.067 1.067-2.133 1.067-2.133 0-4.267 0-5.333 3.2-1.067-1.067-1.067-2.133-1.067-2.133v-2.133c0 1.067-1.067 1.067-1.067 2.133-2.133-1.067-1.067 1.067-1.067 1.067-1.067 0-2.133 0-2.133 1.067-2.133 1.067-4.267 2.133-5.333 3.2-1.067 1.067-2.133 1.067-2.133 3.2s-1.067 2.133-2.133 3.2c-1.067 0-2.133-1.067-2.133-1.067-2.133-2.133-2.133-4.267 1.067-5.333 0-4.267-2.133-4.267-7.467-4.267 2.133 1.067 2.133 3.2 2.133 4.267v3.2c1.067 1.067 1.067 2.133 1.067 3.2 0 1.067 0 2.133-1.067 3.2L299.733 240c-1.067-1.067-3.2-1.067-4.267 0-1.067 1.067-2.133 2.133-3.2 2.133-2.133 1.067-2.133 2.133-1.067 3.2 0 1.067 1.067 2.133 1.067 3.2-3.2-1.067-5.333-2.133-8.533-3.2v2.133c0 1.067 1.067 1.067 2.133 2.133 0 1.067 0 1.067 1.067 2.133-1.067 1.067-3.2 0-4.267-1.067-1.067-1.067-2.133-1.067-2.133-2.133s-1.067-2.133-1.067-3.2v-1.067c0-1.067 1.067-2.133 0-3.2l-5.333-5.333s1.067 0 1.067 1.067c2.133 1.067 3.2 2.133 5.333 3.2 2.133 1.067 4.267 1.067 6.4 2.133h4.267c2.133-1.067 3.2-2.133 3.2-4.267 0-3.2-1.067-5.333-5.333-6.4-1.067 0-1.067-1.067-2.133-1.067l-4.267-4.267-1.067-1.067c-2.133 0-5.333-1.067-6.4-2.133 0 0 0-1.067-1.067-1.067 0 0 1.067 0 1.067 1.067 0-1.067 0-1.067-2.133-2.133 0 0 0 1.067-1.067 1.067h-3.2c-1.067-1.067-1.067-2.133-2.133-3.2 2.133 1.067 3.2 0 4.267-2.133-1.067-1.067-3.2-2.133-4.267-3.2 0 1.067-1.067 2.133-1.067 2.133v-3.2s-1.067 0-1.067-1.067c-1.067 2.133-1.067 3.2-2.133 4.267v-3.2c-1.067 2.133-2.133 3.2-3.2 5.333 1.067-1.067 1.067-3.2 2.133-4.267-1.067 0-1.067-1.067-2.133-1.067l-1.067 1.067c1.067 1.067 0 2.133-1.067 2.133-1.066 1.069-1.066 2.136-2.133 2.136s-2.133-1.067-3.2-1.067c0 1.067 1.067 2.133 1.067 2.133-2.133-1.067-3.2 0-3.2 2.133v-2.133l-1.067 1.067c-2.133-1.067-1.067 1.067-2.133 1.067h-1.067v2.133c-1.067-1.067-2.133-1.067-3.2-2.133 0 1.067-1.067 2.133-1.067 3.2h2.133c1.067 2.133-1.067 2.133-2.133 3.2 1.067 0 1.067 0 2.133 1.067h-2.133v2.133c0-1.067-1.067-1.067-1.067-1.067 0 1.067 0 2.133-1.067 2.133 0 0 0 1.067-1.067 1.067s-1.067 1.067-2.133 2.133c0 0 0 1.067-1.067 1.067-2.133 1.067-1.067 4.267-3.2 5.333-1.067 1.067-1.067 1.067-1.067 2.133v2.134c-1.067 0-2.133 1.067-1.067 3.2-2.133 0-2.133 2.133-3.2 4.267 0 1.067 1.067 1.067 1.067 2.133-1.067 0-1.067-1.067-2.133 0-1.067 0-2.133 1.067-3.2 2.133-1.067 1.067-2.133 1.067-2.133 2.133 0 0 1.067 0 1.067 1.067-1.067 1.067-2.133 1.067-2.133 2.133-1.067 0-1.067 1.067-2.133 2.133 0 0 1.067 0 1.067 1.067-1.067 0-2.133 2.133-1.067 2.133 0 0 0 1.067 1.067 1.067h4.267s0 1.067-1.067 1.067c-1.067-1.067-2.133 0-3.2 0-1.067 0-1.067 1.067 0 2.133v2.133c2.133-2.133 2.133-2.133 3.2-2.133-1.067 1.067-2.133 2.133-2.133 3.2-1.067 0-1.067 1.067-2.133 1.067h2.133c0 1.067-1.067 1.067-1.067 2.133v1.067l3.2 3.2s1.067 0 2.133-1.067c2.133-1.067 2.133-3.2 4.267-3.2v-3.2c0 1.067 1.067 3.2 1.067 4.267 1.067 3.2 1.067 5.333 3.2 8.533 1.067 1.067 0 3.2-1.067 3.2s-1.067 1.067-2.133 1.067c1.067 1.067 2.133 2.133 2.133 3.2 0-1.067 1.067-2.133 1.067-3.2 1.067 2.133 2.133 1.067 3.2 1.067 1.067-2.133 1.067-2.133 3.2-3.2h1.067c1.067-3.2 1.067-5.333 2.133-8.533 0-1.067 1.067-3.2 2.133-3.2 1.067 0 1.067-1.067 1.067-1.067h-3.2v-1.067c1.067 0 2.133 1.067 3.2 0 1.067 0 2.133-1.067 2.133-2.133 0-2.133-2.133-3.2-4.267-2.133 0-3.2 1.067-5.333 1.067-8.533 1.067-2.133 2.133-4.267 5.333-5.333l3.2-3.2v-2.133c-1.067-2.133 0-3.2 1.067-4.267 0-1.067 1.067-1.067 2.133-2.133h3.2v-1.067l1.067 1.067c0 1.067 1.067 2.133 1.067 3.2l-1.067 1.067c-1.067 2.133-2.133 4.267-4.267 6.4 0 1.067-1.067 1.067-2.133 1.067-1.067 1.067-2.133 2.133-2.133 4.267s1.067 4.267 0 6.4c0 1.067 0 2.133 1.067 2.133 1.067 1.067 2.133 1.067 3.2 2.133H256c1.067 0 2.133-1.067 3.2-1.067 2.133-1.067 5.333-1.067 7.467-2.133-1.067 1.067 0 2.133 1.067 2.133s1.067 0 2.133 1.067c-2.133 1.067-3.2 1.067-5.333 2.133-2.133 0-4.267-1.067-7.467 0-1.067 1.067-2.133 1.067-1.067 2.133 0 1.067 0 3.2 2.133 2.133 0 2.133 0 4.267-1.067 5.333-2.133 0-2.133-2.133-4.267-3.2-1.067 0-1.067 1.067-2.133 1.067-1.067 2.133-2.133 4.267-1.067 6.4v4.267c-2.133-1.067-2.133 0-3.2 1.067 0 1.067-1.067 1.067-2.133 1.067 0 0 0-1.067-1.067-2.133-2.133 0-8.533 2.133-9.6 4.267-1.067-1.067-1.067-1.067-2.133-1.067v-2.133l-6.4 3.2v-1.067c-1.067 0-2.133 0-2.133-1.067-1.067-1.067-1.067-2.133-1.067-4.267l1.067 1.067H224v-2.133c-1.067 0-1.067 0-2.133 1.067 0-1.067 1.067-1.067 1.067-2.133s1.067-1.067 2.133-2.133c-2.133 0-2.133-1.067-2.133-2.133v-3.2c-1.067 1.067-2.133 2.133-3.2 2.133-2.133 2.133-3.2 4.267-1.067 7.467V296.537c0 1.067-1.067 1.067-1.067 2.133-1.067-1.067-2.133-1.067-3.2 0h-1.067c-2.133 0-2.133 0-3.2 2.133v1.067-2.133c0 1.067-1.067 3.2-2.133 5.333-1.067 0-2.133 1.067-4.267 2.133l-1.067 1.067c0 1.067-1.067 2.133-2.133 3.2 0 0-1.067 0-1.067 1.067-1.067 1.067-2.133 1.067-3.2 0H195.2c0 1.067 0 2.133 1.067 3.2h-3.2c-2.133-1.067-3.2 0-4.267 0 0 2.133 1.067 2.133 2.133 2.133 2.133 0 3.2 1.067 3.2 3.2 0 0 0 1.067 1.067 1.067 2.133 1.067 1.067 2.133 1.067 3.2v2.133c0 3.2-1.067 4.267-4.267 3.2-3.2 0-7.467-1.067-10.667-1.067-1.067 0-2.133 1.067-3.2 2.133v2.134c1.067 3.2 0 6.4-1.067 9.6 0 1.067 0 2.133 1.067 2.133v3.2h1.067c2.133 0 4.267-1.067 5.333 2.133 0 1.067 1.067 1.067 2.133 0 1.067-1.067 2.133-1.067 4.267-1.067 3.2 1.067 4.267-2.133 5.333-3.2 1.067 0 1.067-2.133 2.133-3.2-1.067-1.067-1.067-2.133 0-3.2 1.067-2.133 3.2-4.267 5.333-5.333 1.067-1.067 2.133-1.067 1.067-3.2 0-1.067 0-2.133 1.067-2.133h6.4c2.133-1.067 3.2-2.133 4.267-3.2 1.067-1.067 1.067-1.067 2.133 0 1.067 0 2.133 1.067 2.133 2.133 0 1.067 1.067 2.133 2.133 3.2 0 0 1.067 1.067 2.133 1.067 2.133 1.067 3.2 2.133 5.333 4.267 1.067 1.067 2.133 1.067 2.133 2.133 0 1.067 1.067 2.133 1.067 3.2-1.067 1.067-3.2 2.133-5.333 2.133h-2.133s0 1.067 1.067 1.067c1.067 1.067 2.133 1.067 3.2 2.133 1.067 0 1.067 0 1.067-1.067v-3.2h1.067c0-1.067 1.067-2.133 1.067-2.133 1.067-1.067 1.067-1.067 0-2.133v-2.133h1.067c1.067 0 1.067 1.067 2.133 1.067-1.067-3.2-3.2-3.2-5.333-4.267v-1.07c-3.2 0-4.267-1.067-5.333-3.2 0-1.067-1.067-2.133-2.133-3.2-2.133-1.067-1.067-2.133-1.067-4.267 0 0 1.067-1.067 2.133-1.067 0 1.067 1.067 2.133 1.067 3.2 1.067-1.067 1.067-1.067 1.067-2.133 1.067 1.067 1.067 2.133 2.133 3.2 0 1.067 1.067 2.133 1.067 2.133 1.067 0 2.133 1.067 3.2 2.133 1.067 1.067 3.2 2.133 3.2 3.2 0 2.133 0 4.267 1.067 5.333 0 1.067 1.067 2.133 2.133 3.2 1.067 1.067 1.067 2.133 2.133 3.2-1.067 2.133 1.067 4.267 3.2 4.267v-2.133h1.067s0-1.067-1.067-2.133c1.067 0 1.067 1.067 2.133 1.067v-1.067h1.067c-1.067-2.133-2.133-3.2-3.2-3.2v-4.266c1.067 0 2.133 0 2.133 1.067v-2.133c2.133-2.133 3.2 0 5.333 0 0 1.067-1.067 3.2-1.067 4.267l1.067-1.067v2.134h-1.067v1.067c1.067 0 1.067 1.067 2.133 2.133 1.067 1.067 1.067 2.133 3.2 2.133 0 0 1.067 0 1.067 1.067 2.133 1.067 2.133 1.067 3.2-1.067 1.067 0 1.067 1.067 2.133 1.067 2.133 1.067 3.2 1.067 5.333 0h3.2v5.333c-1.067 2.133-2.133 4.267-3.2 7.467-1.067 2.133-3.2 3.2-5.333 2.133-1.067-1.067-2.133-1.067-3.2-1.067s-2.133 1.067-3.2 1.067h-2.133c-2.133 0-4.267-1.067-5.333-1.067-2.133 0-3.2-1.067-5.333-2.133l-1.067-1.067c-1.067 0-1.067-1.067-2.133-1.067-1.067 0-3.2 0-4.267 1.067-1.067 1.067-1.067 2.133-1.067 3.2 0 0 0 1.067-1.067 1.067s-2.133 1.067-2.133 0c-2.133 0-3.2-1.067-5.333-2.133-1.067 0-1.067-1.067-1.067-1.067-1.067-2.133-3.2-3.2-5.333-3.2-3.2 0-5.333-2.133-7.467-3.2 1.067-1.067 2.133-1.067 2.133-2.133 1.067-1.067 1.067-2.133 1.067-2.133-1.067-1.067-1.067-2.133 0-3.2v-1.067c-1.067 0-1.067 0-2.133 1.067 0-2.133-1.067-1.067-2.133-1.067-1.067 1.067-2.133 1.067-4.267 0H202.666c-3.2-1.067-6.4 0-9.6 1.067s-5.333 3.2-9.6 3.2H182.4c-1.067 0-2.133 0-2.133-1.067-1.067-1.067-2.133-1.067-2.133 0-1.067 2.133-2.133 4.267-4.267 5.333-2.133 1.067-4.267 4.267-4.267 6.4s-1.067 3.2-2.133 4.267c-2.133 2.133-5.333 2.133-6.4 5.333L160 370.135s0 1.067-1.067 1.067c-1.067 3.2-3.2 5.333-4.267 8.533 0 1.067-1.067 2.133 0 3.2 1.067 1.067 1.067 2.133 0 3.2V391.469c0 1.067-1.067 2.133-1.067 2.133 0 1.067-1.067 2.133-2.133 3.2 1.067 1.067 2.133 2.133 2.133 4.267 0 1.067 1.067 2.133 2.133 2.133h1.067c1.067 2.133 3.2 3.2 4.267 5.333 0 0 1.067 1.067 1.067 2.133 0 1.067 1.067 2.133 2.133 3.2 2.133 1.067 4.267 3.2 6.4 4.267 2.133 1.067 4.267 3.2 7.467 1.067 2.133-1.067 5.333-1.067 7.467 0h3.2c3.2-2.133 6.4-3.2 10.667-3.2 2.133 0 3.2 1.067 4.267 3.2 0 1.067 1.067 2.133 2.133 1.067h3.2c2.133 0 4.267 2.133 4.267 4.267 0 1.067 0 2.133-1.067 4.267 0 1.067-1.067 2.133-1.067 3.2v2.133c1.067 2.133 3.2 4.267 5.333 6.4 1.067 1.067 2.133 2.133 2.133 3.2 1.067 1.067 1.067 3.2 1.067 4.267v3.2c0 1.067 0 2.133 1.067 2.133 1.067 1.067 1.067 4.267 0 4.267-2.133 2.133-3.2 5.333-3.2 7.467-1.067 3.2-1.067 5.333 1.067 7.467 3.2 4.267 4.267 9.6 5.333 14.933 0 2.133 0 4.267 2.133 6.4 2.133 1.067 2.133 3.2 3.2 5.333 1.067 1.067 1.067 3.2 2.133 4.267 1.067 1.067 1.067 2.133 0 3.2 0 0 0 1.067 1.067 1.067 5.333 0 10.667 1.067 14.933 1.067h3.2c1.067-1.067 2.133-1.067 3.2-1.067 3.2-2.133 5.333-5.333 6.4-8.533 1.067-1.067 1.067-2.133 2.133-3.2 2.133-2.133 2.133-4.267 2.133-6.4s0-2.133 1.067-2.133 2.133-1.067 2.133-1.067c1.067 0 2.133-1.067 2.133-2.133 0-2.133 1.067-5.333-1.067-7.467-1.067-1.067-1.067-2.133 1.067-3.2 1.067-1.067 2.133-2.133 3.2-2.133 1.067-1.067 1.067-2.133 2.133-2.133 2.133-1.067 4.267-2.133 5.333-4.267 1.067-1.067 1.067-2.133 1.067-3.2 0-2.133-1.067-4.267 0-6.4v-2.133c-1.067-2.133-2.133-3.2-2.133-5.333v-2.133c-1.067-1.067-1.067-2.133 0-3.2 0-1.067 1.067-2.133 1.067-3.2 1.067-4.267 4.267-5.333 7.467-8.533 2.133-2.133 4.267-3.2 6.4-5.333 3.2-3.2 6.4-6.4 7.467-10.667 0 0 0-1.067 1.067-1.067 2.133-2.133 2.133-4.267 2.133-7.467 0-1.067-1.067-1.067-2.133-1.067-1.067 0-2.133 1.067-2.133 1.067-2.133 0-3.2 1.067-5.333 1.067-1.067 0-3.2 0-4.267 1.067 0 0-1.067 0-1.067-1.067-1.066-1.072-2.133-1.072-2.133-2.138 1.067-1.067 1.067-1.067 0-2.133l-3.2-3.2-2.133-2.133c-2.133-1.067-3.2-2.133-3.2-3.2s-1.067-3.2-2.133-3.2c-2.133-1.067-2.133-3.2-2.133-5.333 0-1.067-1.067-3.2-2.133-4.267-1.067-1.067-3.2-2.133-2.133-4.267-1.067-1.067-2.133-2.133-2.133-4.267-1.067-2.133-2.133-5.333-4.267-7.467v-2.133c1.067 1.067 1.067 2.133 2.133 3.2 0 1.067 1.067 1.067 2.133 1.067 0-1.067 1.067-1.067 1.067-2.133 0 0 1.067 1.067 1.067 2.133 1.067 2.133 3.2 5.333 4.267 7.467 0 0 0 1.067 1.067 1.067 2.133 1.067 3.2 3.2 3.2 5.333s0 3.2 2.133 4.267c1.067 0 1.067 2.133 2.133 2.133 1.067 1.067 1.067 2.133 2.133 3.2 1.067 1.067 1.067 3.2 2.133 4.267 1.067 2.133 1.067 4.267 1.067 6.4l1.067 1.067c1.067 0 2.133 0 3.2-1.067 0 0 1.067 0 1.067-1.067 1.067 0 2.133-1.067 3.2-1.067 1.067-1.067 3.2-1.067 4.267-2.133 1.067-1.067 3.2-1.067 4.267-2.133l1.067-1.067 2.133-2.133c2.133-1.067 4.267 0 5.333-2.133h1.067l3.2-3.2v-1.067c0-1.067 0-1.067 1.067-2.133 2.133-1.067 2.133-2.133 3.2-4.267v-1.067c-1.067-1.067-3.2-3.2-5.333-3.2-1.067 0-2.133-2.133-2.133-3.2v-2.133c-1.067 2.133-3.2 3.2-4.267 4.267l-1.067 1.067h-4.267l-1.067-1.067V371.2c0 1.067-1.067 1.067-1.067 2.133-1.067-1.067-1.067-2.133-1.067-3.2 0 0 0-1.067-1.067-1.067l-3.2-3.2c-1.067-2.133-1.067-3.2 0-5.333 1.067 0 2.133 1.067 3.2 1.067 1.067 1.067 2.133 2.133 2.133 4.267 0 0 0 1.067 1.067 1.067 1.067 1.067 3.2 2.133 4.267 2.133 1.067 1.067 4.267 1.067 5.333 0 1.067-1.067 2.133-1.067 2.133 0 0 2.133 2.133 2.133 3.2 2.133h3.2c1.067 0 2.133 1.067 4.267 0h10.667l4.267 4.267c1.067 1.067 2.133 1.067 3.2 1.067h1.067c-1.067 0-2.133 1.067-3.2 1.067 1.067 1.067 2.133 1.067 2.133 2.133 2.133 2.133 4.267 1.067 5.333-1.067 0 0 0-1.067 1.067-1.067v5.333c0 3.2 0 6.4 2.133 9.6 2.133 4.267 4.267 9.6 6.4 13.867 0 1.067 1.067 1.067 1.067 2.133 1.067 1.067 1.067 1.067 2.133 0 0-1.067 1.067-1.067 1.067-1.067l1.067-1.067c0-1.067 1.067-1.067 2.133-2.133 0-2.133 2.133-5.333 1.067-8.533V393.6l1.067-1.067c1.067-1.067 2.133-1.067 3.2-2.133 3.2-2.133 5.333-4.267 8.533-6.4 1.067-1.067 2.133-1.067 2.133-2.133 0-2.133 1.067-2.133 2.133-3.2 2.133 1.067 3.2 0 4.267 0 1.067 0 1.067-1.067 2.133-2.133 1.067 0 2.133 1.067 2.133 2.133 1.067 1.067 1.067 3.2 2.133 4.267 1.067 1.067 2.133 2.133 3.2 4.267 1.067 1.067 0 3.2 0 5.333 1.067 1.067 4.267 0 5.333-2.133 2.133 0 2.133 2.133 2.133 4.267 0 1.067 0 2.133 1.067 3.2 1.067 2.133 1.067 5.333 1.067 7.467 0 2.133 0 3.2-1.067 4.267 1.067 1.067 1.067 1.067 2.133 1.067 2.133 2.133 3.2 4.267 3.2 6.4 0 3.2 3.2 5.333 6.4 7.467h2.133v-2.133c0-1.067-1.067-2.133-1.067-3.2 0-3.2-2.133-5.333-4.267-6.4-2.133 0-2.133-1.067-2.133-2.133 0-1.067 0-3.2-2.133-3.2v-2.133c0-2.133 1.067-4.267 1.067-6.4l1.067-1.067s1.067 0 1.067 1.067v1.067c2.133 0 3.2 0 4.267 1.067 1.067 2.133 2.133 3.2 4.267 3.2 1.067 0 1.067 1.067 1.067 2.133v2.133l2.133-2.133c1.067-1.067 1.067-2.133 3.2-2.133s4.267-1.067 4.267-4.267c0-2.133 0-4.267-1.067-6.4 0-1.067-1.067-1.067-1.067-2.133l-5.333-5.333v-2.133c1.067-2.133 2.133-4.267 5.333-5.333h3.2c1.067 1.067 1.067 2.133 1.067 3.2 0-2.133 0-2.133 2.133-3.2h2.133c1.067 0 2.133 0 2.133-1.067 1.067 0 1.067-1.067 2.133 0h1.067c1.067 0 2.133-1.067 3.2-1.067s1.067-1.067 2.133-1.067l3.2-3.2c2.133-1.067 3.2-2.133 3.2-4.267 2.133-2.133 4.267-5.333 5.333-8.533-1.067 0-1.067-1.067-2.133-1.067 1.067 0 1.067-1.067 2.133-1.067l-1.067-1.067 1.067-1.067c-1.067-1.067-2.133-2.133-2.133-3.2-1.067-2.133-1.067-4.267-3.2-4.267 1.067-1.067 1.067-1.067 1.067-2.133 1.067-1.067 2.133-1.067 2.133-1.067 0-1.067 2.133-1.067 3.2-2.133 0 0 1.067 0 1.067-1.067h-1.067c-2.133-1.067-3.2-1.067-4.267 0h-1.067l-2.133-2.133s-1.067-1.067-1.067-2.133l1.067-1.067c1.067 0 1.067 0 2.133-1.067l4.267-4.267h1.067v2.133c0 1.067-1.067 1.067-1.067 2.133 1.067 1.067 1.067 1.067 0 2.133 1.067-1.067 2.133-1.067 3.2-2.133 1.067 0 2.133-1.067 2.133-1.067 1.067 0 2.133 1.067 3.2 1.067 0 1.067-1.067 2.133-1.067 4.267l1.067 1.067c2.133-1.067 3.2 0 3.2 2.133 0 0-1.067 0-1.067 1.067 3.2 2.133 0 4.267 1.067 6.4 1.067-1.067 3.2-1.067 4.267-2.133 2.133-1.067 2.133-2.133 2.133-4.267 0-2.133-2.133-4.267-3.2-6.4-1.067-1.067-1.067-2.133 0-3.2 2.133-1.067 4.267-2.133 3.2-4.267 0 0 0-1.067 1.067-1.067 1.067-1.067 2.133-3.2 4.267-4.267 1.067 0 1.067 1.067 2.133 1.067 2.133 1.067 4.267-1.067 5.333-2.133 2.133-2.133 4.267-5.333 6.4-8.533 2.133-8.533 4.267-17.067 5.333-26.667-1.067-1.067-2.133-1.067-3.2-1.067v2.133h-2.133v-2.133c0 1.067-1.067 1.067-1.067 1.067v-2.133c-1.067 0-2.133 0-3.2-1.067v-1.067c3.2-3.2 6.4-7.467 10.667-10.667l1.067-1.067c0-1.067 1.067-1.067 1.067-2.133 0-6.4 1.067-12.8 1.067-19.2 1.066-11.735-1.067-28.801-4.267-44.801z" style="" fill="#f3f3f3" data-original="#f3f3f3" class=""></path><path d="M480 345.6H32c-18.133 0-32-13.867-32-32V198.4c0-18.133 13.867-32 32-32h448c18.133 0 32 13.867 32 32v114.133c0 18.134-13.867 33.067-32 33.067z" style="" fill="#415a6b" data-original="#415a6b" class=""></path><path d="M101.333 297.6H76.8L48 214.4h23.467l16 50.133 16-50.133H128l16 50.133 16-50.133h24.533l-28.8 83.2H131.2l-14.933-44.8-14.934 44.8zM240 297.6h-23.467l-28.8-83.2H211.2l16 50.133 16-50.133h23.467l16 50.133 16-50.133H323.2l-28.8 83.2h-24.533L256 252.8l-16 44.8zM379.733 297.6h-23.467l-28.8-83.2H352l16 50.133 16-50.133h22.4l16 50.133 16-50.133h24.533l-28.8 83.2H409.6l-14.933-44.8-14.934 44.8z" style="" fill="#ffffff" data-original="#ffffff" class=""></path></g></svg>